<svg aria-hidden="true" style="position: absolute; width: 0; height: 0; overflow: hidden;" version="1.1" xmlns="http://www.w3.org/2000/svg" xmlns:xlink="http://www.w3.org/1999/xlink">
<defs>
<symbol id="icon-instagram" viewBox="0 0 32 32">
<path d="M24.544 5.536c-1.060 0-1.92 0.86-1.92 1.92s0.86 1.92 1.92 1.92v0c1.060 0 1.92-0.86 1.92-1.92s-0.86-1.92-1.92-1.92v0zM31.904 9.408c-0.034-1.404-0.301-2.736-0.764-3.972l0.027 0.084c-0.43-1.108-1.060-2.053-1.855-2.831l-0.001-0.001c-0.774-0.8-1.72-1.428-2.78-1.823l-0.052-0.017c-1.151-0.449-2.483-0.722-3.875-0.752l-0.013-0c-1.696-0.096-2.24-0.096-6.592-0.096s-4.896 0-6.592 0.096c-1.405 0.030-2.737 0.303-3.968 0.779l0.080-0.027c-1.11 0.417-2.056 1.044-2.83 1.838l-0.002 0.002c-0.8 0.774-1.428 1.72-1.823 2.78l-0.017 0.052c-0.449 1.151-0.722 2.483-0.752 3.875l-0 0.013c-0.096 1.696-0.096 2.24-0.096 6.592s0 4.896 0.096 6.592c0.030 1.405 0.303 2.737 0.779 3.968l-0.027-0.080c0.389 1.072 1.019 2.039 1.84 2.832 0.795 0.816 1.762 1.445 2.832 1.84 1.243 0.471 2.56 0.725 3.888 0.752 1.696 0.096 2.24 0.096 6.592 0.096s4.896 0 6.592-0.096c1.405-0.030 2.737-0.303 3.968-0.779l-0.080 0.027c1.112-0.412 2.058-1.040 2.83-1.838l0.002-0.002c0.821-0.795 1.454-1.762 1.856-2.832 0.457-1.248 0.704-2.56 0.736-3.888 0-1.696 0.096-2.24 0.096-6.592s0-4.896-0.096-6.592zM29.024 22.4c-0.013 1.071-0.211 2.092-0.564 3.038l0.020-0.062c-0.256 0.697-0.665 1.326-1.2 1.84-0.519 0.528-1.147 0.937-1.84 1.2-0.884 0.333-1.905 0.531-2.97 0.544l-0.006 0c-1.6 0.080-2.192 0.096-6.4 0.096s-4.8 0-6.4-0.096c-0.051 0.001-0.111 0.002-0.171 0.002-1.050 0-2.058-0.176-2.997-0.501l0.064 0.019c-0.688-0.29-1.273-0.696-1.759-1.198l-0.001-0.002c-0.518-0.502-0.922-1.117-1.173-1.807l-0.011-0.033c-0.373-0.897-0.604-1.936-0.64-3.026l-0-0.014c0-1.6-0.096-2.192-0.096-6.4s0-4.8 0.096-6.4c0.007-1.038 0.197-2.066 0.56-3.040 0.295-0.696 0.724-1.285 1.259-1.755l0.005-0.005c0.487-0.549 1.086-0.987 1.76-1.28 0.903-0.337 1.947-0.535 3.036-0.544l0.004-0c1.6 0 2.192-0.096 6.4-0.096s4.8 0 6.4 0.096c1.015 0.011 2.023 0.197 2.976 0.544 0.727 0.27 1.381 0.709 1.904 1.28 0.526 0.491 0.935 1.093 1.2 1.76 0.357 0.974 0.539 2.002 0.544 3.040 0.080 1.6 0.096 2.192 0.096 6.4s-0.016 4.8-0.096 6.4zM16 7.792c-4.524 0.012-8.186 3.682-8.186 8.208 0 4.533 3.675 8.208 8.208 8.208s8.208-3.675 8.208-8.208c0-1.136-0.231-2.218-0.648-3.201l0.020 0.054c-1.264-2.995-4.175-5.058-7.569-5.058-0.012 0-0.023 0-0.035 0h0.002zM16 21.328c-2.943 0-5.328-2.385-5.328-5.328s2.385-5.328 5.328-5.328v0c2.943 0 5.328 2.385 5.328 5.328s-2.385 5.328-5.328 5.328v0z"></path>
</symbol>
<symbol id="icon-search" viewBox="0 0 32 32">
<path fill="none" stroke="#fafafa" style="stroke: var(--color1, #fafafa)" stroke-linejoin="round" stroke-linecap="round" stroke-miterlimit="4" stroke-width="3" d="M14.667 25.333c5.891 0 10.667-4.776 10.667-10.667s-4.776-10.667-10.667-10.667c-5.891 0-10.667 4.776-10.667 10.667s4.776 10.667 10.667 10.667z"></path>
<path fill="none" stroke="#fafafa" style="stroke: var(--color1, #fafafa)" stroke-linejoin="round" stroke-linecap="round" stroke-miterlimit="4" stroke-width="3" d="M27.999 28l-5.8-5.8"></path>
</symbol>
<symbol id="icon-twiter" viewBox="0 0 36 32">
<path fill="none" stroke="#fafafa" style="stroke: var(--color1, #fafafa)" stroke-linejoin="round" stroke-linecap="round" stroke-miterlimit="4" stroke-width="3.6" d="M34.5 2.5c-1.436 1.013-3.027 1.788-4.71 2.295-0.903-1.039-2.104-1.775-3.439-2.109s-2.741-0.25-4.027 0.241c-1.286 0.491-2.391 1.365-3.164 2.504s-1.178 2.488-1.159 3.864v1.5c-2.636 0.068-5.248-0.516-7.604-1.702s-4.881-4.009-6.396-6.167c0 0-5.5 14.573 8 20.573-3.089 2.097-6.769 3.148-10.5 3 13.5 7.5 30 0 30-17.25-0.001-0.418-0.042-0.835-0.12-1.245 1.531-1.51 2.611-3.416 3.12-5.505z"></path>
</symbol>
<symbol id="icon-facebook" viewBox="0 0 32 32">
<path d="M21.444 5.312h3.089v-5.088c-1.493-0.151-2.997-0.226-4.501-0.224-4.467 0-7.522 2.656-7.522 7.52v4.192h-5.043v5.696h5.043v14.592h6.044v-14.592h5.026l0.757-5.696h-5.781v-3.631c0-1.681 0.459-2.769 2.889-2.769z"></path>
</symbol>
<symbol id="icon-close-btn" viewBox="0 0 32 32">
<path d="M32 3.224l-3.224-3.224-12.776 12.776-12.776-12.776-3.224 3.224 12.776 12.776-12.776 12.776 3.224 3.224 12.776-12.776 12.776 12.776 3.224-3.224-12.776-12.776 12.776-12.776z"></path>
</symbol>



<!-- logo -->

<symbol id="icon-logo" viewBox="0 0 202 32">
<path fill="#ed1d24" style="fill: var(--color1, #ed1d24)" d="M0 0.5h98v31h-98v-31z"></path>
<path fill="#fafafa" style="fill: var(--color2, #fafafa)" d="M4.336 26.5v-19.6h4.48l1.624 10.080 1.596-10.080h4.564v19.628h-3.64v-9.464l-1.596 9.436h-1.876l-1.596-9.352v9.352h-3.556z"></path>
<path fill="#fafafa" style="fill: var(--color2, #fafafa)" d="M24.499 6.9l2.968 19.6h-3.556l-0.392-3.024h-2.744l-0.42 3.024h-3.5l2.94-19.6h4.704zM23.155 20.34l-1.008-8.232-0.952 8.232h1.96z"></path>
<path fill="#fafafa" style="fill: var(--color2, #fafafa)" d="M31.611 6.9c0.653 0 1.269 0.103 1.848 0.308 0.597 0.205 1.129 0.532 1.596 0.98 0.467 0.429 0.849 0.989 1.148 1.68 0.317 0.691 0.523 1.531 0.616 2.52 0.131 1.213 0.093 2.231-0.112 3.052-0.187 0.803-0.42 1.447-0.7 1.932-0.317 0.597-0.7 1.064-1.148 1.4l2.324 7.728h-3.584l-1.708-6.58-0.784 0.14v6.44h-3.528l0.028-19.6h4.004zM31.107 16.588c0.429-0.037 0.784-0.14 1.064-0.308 0.28-0.187 0.513-0.42 0.7-0.7s0.317-0.597 0.392-0.952c0.075-0.355 0.112-0.719 0.112-1.092 0-0.392-0.037-0.775-0.112-1.148-0.075-0.392-0.196-0.737-0.364-1.036-0.168-0.317-0.401-0.569-0.7-0.756-0.28-0.187-0.644-0.28-1.092-0.28v6.272z"></path>
<path fill="#fafafa" style="fill: var(--color2, #fafafa)" d="M39.863 6.9l1.568 11.816 1.652-11.816h3.528l-3.108 19.6h-4.144l-3.136-19.6h3.64z"></path>
<path fill="#fafafa" style="fill: var(--color2, #fafafa)" d="M46.833 26.5v-19.6h6.58v3.472h-2.968v4.424h2.996v3.64h-3.164v4.424h3.192v3.64h-6.636z"></path>
<path fill="#fafafa" style="fill: var(--color2, #fafafa)" d="M58.041 6.872v16.1h3.024v3.556h-6.496v-19.628l3.472-0.028z"></path>
<path fill="#fafafa" style="fill: var(--color2, #fafafa)" d="M61.925 16.7c0-1.475 0.131-2.809 0.392-4.004 0.261-1.213 0.625-2.249 1.092-3.108s1.036-1.521 1.708-1.988 1.409-0.7 2.212-0.7c0.803 0 1.531 0.233 2.184 0.7 0.672 0.467 1.241 1.129 1.708 1.988s0.831 1.895 1.092 3.108c0.261 1.195 0.392 2.529 0.392 4.004s-0.131 2.819-0.392 4.032c-0.261 1.195-0.625 2.221-1.092 3.080s-1.036 1.521-1.708 1.988c-0.653 0.467-1.381 0.7-2.184 0.7s-1.54-0.233-2.212-0.7c-0.672-0.467-1.241-1.129-1.708-1.988s-0.831-1.885-1.092-3.080c-0.261-1.213-0.392-2.557-0.392-4.032zM65.397 16.756c0 0.933 0.047 1.783 0.14 2.548s0.224 1.428 0.392 1.988c0.168 0.541 0.364 0.961 0.588 1.26 0.243 0.299 0.504 0.448 0.784 0.448s0.532-0.149 0.756-0.448c0.243-0.299 0.439-0.719 0.588-1.26 0.168-0.56 0.299-1.223 0.392-1.988s0.14-1.615 0.14-2.548c0-0.933-0.047-1.783-0.14-2.548-0.093-0.784-0.224-1.447-0.392-1.988-0.149-0.541-0.345-0.961-0.588-1.26-0.224-0.299-0.476-0.448-0.756-0.448s-0.541 0.149-0.784 0.448c-0.224 0.299-0.42 0.719-0.588 1.26s-0.299 1.204-0.392 1.988c-0.093 0.765-0.14 1.615-0.14 2.548z"></path>
<path fill="#fafafa" style="fill: var(--color2, #fafafa)" d="M84.241 16.812c0 0.653-0.009 1.353-0.028 2.1 0 0.728-0.047 1.456-0.14 2.184-0.075 0.709-0.215 1.391-0.42 2.044s-0.513 1.232-0.924 1.736c-0.392 0.485-0.905 0.877-1.54 1.176s-1.419 0.448-2.352 0.448c-1.288 0-2.296-0.224-3.024-0.672-0.709-0.448-1.241-1.083-1.596-1.904-0.336-0.84-0.541-1.848-0.616-3.024-0.056-1.176-0.084-2.483-0.084-3.92v-10.108h3.444v9.94c0.019 1.157 0.093 2.184 0.224 3.080 0.056 0.392 0.131 0.775 0.224 1.148 0.093 0.355 0.205 0.681 0.336 0.98 0.149 0.28 0.308 0.513 0.476 0.7 0.187 0.168 0.392 0.252 0.616 0.252 0.28 0 0.513-0.084 0.7-0.252 0.205-0.187 0.373-0.42 0.504-0.7 0.149-0.299 0.261-0.625 0.336-0.98 0.093-0.373 0.168-0.756 0.224-1.148 0.112-0.896 0.159-1.923 0.14-3.080v-9.912h3.5v9.912z"></path>
<path fill="#fafafa" style="fill: var(--color2, #fafafa)" d="M93.176 6.9c0.019 0 0.028 0.187 0.028 0.56 0 0.355 0 0.747 0 1.176 0 0.523-0.009 1.111-0.028 1.764-0.579 0-1.167 0.056-1.764 0.168-0.579 0.093-1.101 0.252-1.568 0.476-0.448 0.205-0.821 0.457-1.12 0.756-0.28 0.299-0.42 0.644-0.42 1.036 0 0.336 0.121 0.625 0.364 0.868 0.261 0.243 0.569 0.485 0.924 0.728 0.373 0.243 0.775 0.513 1.204 0.812 0.448 0.28 0.849 0.616 1.204 1.008 0.373 0.392 0.681 0.868 0.924 1.428 0.261 0.56 0.392 1.241 0.392 2.044 0 1.195-0.224 2.221-0.672 3.080-0.429 0.84-1.027 1.54-1.792 2.1-0.747 0.541-1.624 0.943-2.632 1.204s-2.072 0.392-3.192 0.392v-3.5c0.336 0 0.775-0.056 1.316-0.168s1.064-0.299 1.568-0.56c0.523-0.261 0.971-0.607 1.344-1.036s0.551-0.961 0.532-1.596c0-0.317-0.121-0.588-0.364-0.812-0.243-0.243-0.551-0.476-0.924-0.7-0.355-0.243-0.737-0.495-1.148-0.756-0.411-0.28-0.803-0.616-1.176-1.008-0.355-0.411-0.653-0.896-0.896-1.456-0.224-0.56-0.336-1.251-0.336-2.072 0-0.859 0.243-1.652 0.728-2.38 0.504-0.728 1.148-1.353 1.932-1.876s1.661-0.933 2.632-1.232c0.989-0.299 1.969-0.448 2.94-0.448z"></path>
<path fill="#fafafa" style="fill: var(--color2, #fafafa)" d="M109.784 6.9l2.968 19.6h-3.556l-0.392-3.024h-2.744l-0.42 3.024h-3.5l2.94-19.6h4.704zM108.44 20.34l-1.008-8.232-0.952 8.232h1.96z"></path>
<path fill="#fafafa" style="fill: var(--color2, #fafafa)" d="M116.197 6.872c0.896 0 1.67 0.168 2.324 0.504s1.213 0.784 1.68 1.344c0.466 0.56 0.849 1.213 1.148 1.96 0.298 0.728 0.532 1.484 0.7 2.268s0.28 1.577 0.336 2.38c0.074 0.784 0.112 1.512 0.112 2.184 0 1.493-0.159 2.753-0.476 3.78-0.299 1.027-0.691 1.867-1.176 2.52-0.467 0.653-0.962 1.167-1.484 1.54-0.934 0.653-1.988 1.027-3.164 1.12h-3.444l0.056-19.6h3.388zM116.253 23.504c0 0 0.065-0.009 0.196-0.028 0.13-0.019 0.298-0.084 0.504-0.196 0.224-0.131 0.457-0.327 0.7-0.588 0.261-0.261 0.494-0.635 0.7-1.12 0.224-0.485 0.401-1.092 0.532-1.82 0.149-0.747 0.224-1.661 0.224-2.744 0-0.28-0.010-0.644-0.028-1.092-0.019-0.448-0.066-0.924-0.14-1.428-0.056-0.504-0.15-1.008-0.28-1.512-0.131-0.504-0.308-0.961-0.532-1.372-0.206-0.411-0.467-0.737-0.784-0.98-0.318-0.261-0.7-0.392-1.148-0.392l0.056 13.272z"></path>
<path fill="#fafafa" style="fill: var(--color2, #fafafa)" d="M127.035 6.9l1.568 11.816 1.652-11.816h3.528l-3.108 19.6h-4.144l-3.136-19.6h3.64z"></path>
<path fill="#fafafa" style="fill: var(--color2, #fafafa)" d="M134.005 26.5v-19.6h6.58v3.472h-2.968v4.424h2.996v3.64h-3.164v4.424h3.192v3.64h-6.636z"></path>
<path fill="#fafafa" style="fill: var(--color2, #fafafa)" d="M141.713 26.5v-19.6h3.5l2.996 10.136v-10.136h3.584v19.6h-3.584l-3.024-9.352v9.38l-3.472-0.028z"></path>
<path fill="#fafafa" style="fill: var(--color2, #fafafa)" d="M163.601 6.9v3.556h-3.528v16.044h-3.444v-16.044h-3.78v-3.556h10.752z"></path>
<path fill="#fafafa" style="fill: var(--color2, #fafafa)" d="M175.788 16.812c0 0.653-0.009 1.353-0.028 2.1 0 0.728-0.047 1.456-0.14 2.184-0.075 0.709-0.215 1.391-0.42 2.044s-0.513 1.232-0.924 1.736c-0.392 0.485-0.905 0.877-1.54 1.176s-1.419 0.448-2.352 0.448c-1.288 0-2.296-0.224-3.024-0.672-0.709-0.448-1.241-1.083-1.596-1.904-0.336-0.84-0.541-1.848-0.616-3.024-0.056-1.176-0.084-2.483-0.084-3.92v-10.108h3.444v9.94c0.019 1.157 0.093 2.184 0.224 3.080 0.056 0.392 0.131 0.775 0.224 1.148 0.093 0.355 0.205 0.681 0.336 0.98 0.149 0.28 0.308 0.513 0.476 0.7 0.187 0.168 0.392 0.252 0.616 0.252 0.28 0 0.513-0.084 0.7-0.252 0.205-0.187 0.373-0.42 0.504-0.7 0.149-0.299 0.261-0.625 0.336-0.98 0.093-0.373 0.168-0.756 0.224-1.148 0.112-0.896 0.159-1.923 0.14-3.080v-9.912h3.5v9.912z"></path>
<path fill="#fafafa" style="fill: var(--color2, #fafafa)" d="M180.635 6.9c0.653 0 1.269 0.103 1.848 0.308 0.597 0.205 1.129 0.532 1.596 0.98 0.467 0.429 0.849 0.989 1.148 1.68 0.317 0.691 0.523 1.531 0.616 2.52 0.131 1.213 0.093 2.231-0.112 3.052-0.187 0.803-0.42 1.447-0.7 1.932-0.317 0.597-0.7 1.064-1.148 1.4l2.324 7.728h-3.584l-1.708-6.58-0.784 0.14v6.44h-3.528l0.028-19.6h4.004zM180.131 16.588c0.429-0.037 0.784-0.14 1.064-0.308 0.28-0.187 0.513-0.42 0.7-0.7s0.317-0.597 0.392-0.952c0.075-0.355 0.112-0.719 0.112-1.092 0-0.392-0.037-0.775-0.112-1.148-0.075-0.392-0.196-0.737-0.364-1.036-0.168-0.317-0.401-0.569-0.7-0.756-0.28-0.187-0.644-0.28-1.092-0.28v6.272z"></path>
<path fill="#fafafa" style="fill: var(--color2, #fafafa)" d="M185.247 26.5v-19.6h6.58v3.472h-2.968v4.424h2.996v3.64h-3.164v4.424h3.192v3.64h-6.636z"></path>
<path fill="#fafafa" style="fill: var(--color2, #fafafa)" d="M201.047 6.9c0.019 0 0.028 0.187 0.028 0.56 0 0.355 0 0.747 0 1.176 0 0.523-0.009 1.111-0.028 1.764-0.578 0-1.166 0.056-1.764 0.168-0.578 0.093-1.101 0.252-1.568 0.476-0.448 0.205-0.821 0.457-1.12 0.756-0.28 0.299-0.42 0.644-0.42 1.036 0 0.336 0.122 0.625 0.364 0.868 0.262 0.243 0.57 0.485 0.924 0.728 0.374 0.243 0.775 0.513 1.204 0.812 0.448 0.28 0.85 0.616 1.204 1.008 0.374 0.392 0.682 0.868 0.924 1.428 0.262 0.56 0.392 1.241 0.392 2.044 0 1.195-0.224 2.221-0.672 3.080-0.429 0.84-1.026 1.54-1.792 2.1-0.746 0.541-1.624 0.943-2.632 1.204s-2.072 0.392-3.192 0.392v-3.5c0.336 0 0.775-0.056 1.316-0.168 0.542-0.112 1.064-0.299 1.568-0.56 0.523-0.261 0.971-0.607 1.344-1.036 0.374-0.429 0.551-0.961 0.532-1.596 0-0.317-0.121-0.588-0.364-0.812-0.242-0.243-0.55-0.476-0.924-0.7-0.354-0.243-0.737-0.495-1.148-0.756-0.41-0.28-0.802-0.616-1.176-1.008-0.354-0.411-0.653-0.896-0.896-1.456-0.224-0.56-0.336-1.251-0.336-2.072 0-0.859 0.243-1.652 0.728-2.38 0.504-0.728 1.148-1.353 1.932-1.876s1.662-0.933 2.632-1.232c0.99-0.299 1.97-0.448 2.94-0.448z"></path>
<path fill="none" stroke="#fafafa" style="stroke: var(--color2, #fafafa)" stroke-linejoin="miter" stroke-linecap="butt" stroke-miterlimit="4" stroke-width="1" d="M104 1.5h96"></path>
<path fill="none" stroke="#fafafa" style="stroke: var(--color2, #fafafa)" stroke-linejoin="miter" stroke-linecap="butt" stroke-miterlimit="4" stroke-width="1" d="M104 31.5h96"></path>
</symbol>
</defs>
</svg>
