<svg aria-hidden="true" style="position: absolute; width: 0; height: 0; overflow: hidden;" version="1.1" xmlns="http://www.w3.org/2000/svg" xmlns:xlink="http://www.w3.org/1999/xlink">
<defs>
<symbol id="icon-instagram" viewBox="0 0 32 32">
<path d="M24.544 5.536c-1.060 0-1.92 0.86-1.92 1.92s0.86 1.92 1.92 1.92v0c1.060 0 1.92-0.86 1.92-1.92s-0.86-1.92-1.92-1.92v0zM31.904 9.408c-0.034-1.404-0.301-2.736-0.764-3.972l0.027 0.084c-0.43-1.108-1.060-2.053-1.855-2.831l-0.001-0.001c-0.774-0.8-1.72-1.428-2.78-1.823l-0.052-0.017c-1.151-0.449-2.483-0.722-3.875-0.752l-0.013-0c-1.696-0.096-2.24-0.096-6.592-0.096s-4.896 0-6.592 0.096c-1.405 0.030-2.737 0.303-3.968 0.779l0.080-0.027c-1.11 0.417-2.056 1.044-2.83 1.838l-0.002 0.002c-0.8 0.774-1.428 1.72-1.823 2.78l-0.017 0.052c-0.449 1.151-0.722 2.483-0.752 3.875l-0 0.013c-0.096 1.696-0.096 2.24-0.096 6.592s0 4.896 0.096 6.592c0.030 1.405 0.303 2.737 0.779 3.968l-0.027-0.080c0.389 1.072 1.019 2.039 1.84 2.832 0.795 0.816 1.762 1.445 2.832 1.84 1.243 0.471 2.56 0.725 3.888 0.752 1.696 0.096 2.24 0.096 6.592 0.096s4.896 0 6.592-0.096c1.405-0.030 2.737-0.303 3.968-0.779l-0.080 0.027c1.112-0.412 2.058-1.040 2.83-1.838l0.002-0.002c0.821-0.795 1.454-1.762 1.856-2.832 0.457-1.248 0.704-2.56 0.736-3.888 0-1.696 0.096-2.24 0.096-6.592s0-4.896-0.096-6.592zM29.024 22.4c-0.013 1.071-0.211 2.092-0.564 3.038l0.020-0.062c-0.256 0.697-0.665 1.326-1.2 1.84-0.519 0.528-1.147 0.937-1.84 1.2-0.884 0.333-1.905 0.531-2.97 0.544l-0.006 0c-1.6 0.080-2.192 0.096-6.4 0.096s-4.8 0-6.4-0.096c-0.051 0.001-0.111 0.002-0.171 0.002-1.050 0-2.058-0.176-2.997-0.501l0.064 0.019c-0.688-0.29-1.273-0.696-1.759-1.198l-0.001-0.002c-0.518-0.502-0.922-1.117-1.173-1.807l-0.011-0.033c-0.373-0.897-0.604-1.936-0.64-3.026l-0-0.014c0-1.6-0.096-2.192-0.096-6.4s0-4.8 0.096-6.4c0.007-1.038 0.197-2.066 0.56-3.040 0.295-0.696 0.724-1.285 1.259-1.755l0.005-0.005c0.487-0.549 1.086-0.987 1.76-1.28 0.903-0.337 1.947-0.535 3.036-0.544l0.004-0c1.6 0 2.192-0.096 6.4-0.096s4.8 0 6.4 0.096c1.015 0.011 2.023 0.197 2.976 0.544 0.727 0.27 1.381 0.709 1.904 1.28 0.526 0.491 0.935 1.093 1.2 1.76 0.357 0.974 0.539 2.002 0.544 3.040 0.080 1.6 0.096 2.192 0.096 6.4s-0.016 4.8-0.096 6.4zM16 7.792c-4.524 0.012-8.186 3.682-8.186 8.208 0 4.533 3.675 8.208 8.208 8.208s8.208-3.675 8.208-8.208c0-1.136-0.231-2.218-0.648-3.201l0.020 0.054c-1.264-2.995-4.175-5.058-7.569-5.058-0.012 0-0.023 0-0.035 0h0.002zM16 21.328c-2.943 0-5.328-2.385-5.328-5.328s2.385-5.328 5.328-5.328v0c2.943 0 5.328 2.385 5.328 5.328s-2.385 5.328-5.328 5.328v0z"></path>
</symbol>
<symbol id="icon-search" viewBox="0 0 32 32">
<path fill="none" stroke="#fafafa" style="stroke: var(--color1, #fafafa)" stroke-linejoin="round" stroke-linecap="round" stroke-miterlimit="4" stroke-width="3" d="M14.667 25.333c5.891 0 10.667-4.776 10.667-10.667s-4.776-10.667-10.667-10.667c-5.891 0-10.667 4.776-10.667 10.667s4.776 10.667 10.667 10.667z"></path>
<path fill="none" stroke="#fafafa" style="stroke: var(--color1, #fafafa)" stroke-linejoin="round" stroke-linecap="round" stroke-miterlimit="4" stroke-width="3" d="M27.999 28l-5.8-5.8"></path>
</symbol>
<symbol id="icon-twiter" viewBox="0 0 36 32">
<path fill="none" stroke="#fafafa" style="stroke: var(--color1, #fafafa)" stroke-linejoin="round" stroke-linecap="round" stroke-miterlimit="4" stroke-width="3.6" d="M34.5 2.5c-1.436 1.013-3.027 1.788-4.71 2.295-0.903-1.039-2.104-1.775-3.439-2.109s-2.741-0.25-4.027 0.241c-1.286 0.491-2.391 1.365-3.164 2.504s-1.178 2.488-1.159 3.864v1.5c-2.636 0.068-5.248-0.516-7.604-1.702s-4.881-4.009-6.396-6.167c0 0-5.5 14.573 8 20.573-3.089 2.097-6.769 3.148-10.5 3 13.5 7.5 30 0 30-17.25-0.001-0.418-0.042-0.835-0.12-1.245 1.531-1.51 2.611-3.416 3.12-5.505z"></path>
</symbol>
<symbol id="icon-facebook" viewBox="0 0 32 32">
<path d="M21.444 5.312h3.089v-5.088c-1.493-0.151-2.997-0.226-4.501-0.224-4.467 0-7.522 2.656-7.522 7.52v4.192h-5.043v5.696h5.043v14.592h6.044v-14.592h5.026l0.757-5.696h-5.781v-3.631c0-1.681 0.459-2.769 2.889-2.769z"></path>
</symbol>
<symbol id="icon-close-btn" viewBox="0 0 32 32">
<path d="M32 3.224l-3.224-3.224-12.776 12.776-12.776-12.776-3.224 3.224 12.776 12.776-12.776 12.776 3.224 3.224 12.776-12.776 12.776 12.776 3.224-3.224-12.776-12.776 12.776-12.776z"></path>
</symbol>
</defs>
</svg>
