<svg xmlns="http://www.w3.org/2000/svg"  viewBox="0 0 40 40" width="40px" height="40px"><path fill="#b6dcfe" d="M20.5,38.5c-3.171,0-6.239-0.929-8.872-2.688l-0.477-0.318L9.687,38.5H5.8l2.662-5.465l-0.209-0.249 C5.833,29.908,4.5,26.255,4.5,22.5c0-8.822,7.178-16,16-16c0.1,0,0.197,0.007,0.295,0.014l0.576,0.025L24.312,0.5H28.5v8.16 l0.242,0.146C33.6,11.736,36.5,16.855,36.5,22.5C36.5,31.322,29.322,38.5,20.5,38.5z M12.048,33.655l0.345,0.246 c2.388,1.701,5.191,2.6,8.107,2.6c7.72,0,14-6.28,14-14c0-4.233-1.89-8.196-5.185-10.871L28.5,10.968v13.711l-4-3.2V8.095 L16.021,25.5H24.5v-1.459L28.2,27l-3.7,2.959V28.5h-9.94L12.048,33.655z M19.56,8.547C12.237,9.035,6.5,15.164,6.5,22.5 c0,2.823,0.839,5.546,2.426,7.875l0.485,0.712L20.42,8.49L19.56,8.547z"/><path fill="#4788c7" d="M28,1v7.377v0.565l0.483,0.292C33.19,12.073,36,17.032,36,22.5C36,31.047,29.047,38,20.5,38 c-3.072,0-6.044-0.9-8.594-2.604l-0.953-0.636l-0.502,1.03L9.375,38H6.6l2.17-4.454l0.285-0.584l-0.418-0.497 C6.291,29.676,5,26.138,5,22.5C5,13.953,11.953,7,20.5,7c0.088,0,0.174,0.007,0.26,0.013c0.089,0.006,0.179,0.012,0.269,0.015 l0.648,0.022l0.284-0.583L24.625,1H28 M15.221,26h1.6H24h1v-0.919L27.399,27L25,28.919V28h-1h-9.128h-0.625l-0.274,0.562 l-2.189,4.493l-0.371,0.761l0.69,0.491C14.575,36.069,17.479,37,20.5,37C28.495,37,35,30.495,35,22.5 c0-4.385-1.957-8.488-5.37-11.259L28,9.918v2.1v11.621l-3-2.4V10.263V5.927l-1.899,3.898l-7.18,14.737L15.221,26 M9.484,32.08 l0.755-1.549L20.492,9.484l0.755-1.55l-1.721,0.115C11.942,8.553,6,14.902,6,22.5c0,2.924,0.869,5.744,2.513,8.156L9.484,32.08 M29,0h-5l-2.937,6.028C20.875,6.022,20.69,6,20.5,6C11.387,6,4,13.387,4,22.5c0,4.042,1.458,7.739,3.87,10.608L5,39h5l1.35-2.772 C13.969,37.977,17.114,39,20.5,39C29.613,39,37,31.613,37,22.5c0-5.999-3.212-11.235-8-14.123V0L29,0z M9.339,30.093 C7.864,27.929,7,25.316,7,22.5c0-7.15,5.562-12.986,12.593-13.454L9.339,30.093L9.339,30.093z M16.82,25L24,10.263v11.456l5,4 V12.018c3.049,2.475,5,6.249,5,10.482C34,29.956,27.956,36,20.5,36c-2.917,0-5.61-0.934-7.817-2.507L14.872,29H24v2l5-4l-5-4v2 H16.82L16.82,25z"/><g><path fill="#b6dcfe" d="M25.776 31.5L28.5 29.321 28.5 31.5z"/><path fill="#4788c7" d="M28,30.361V31h-0.798L28,30.361 M29,28.281l-4.375,3.5L24.351,32H29V28.281L29,28.281z"/></g></svg>